<svg id="Warstwa_1" data-name="Warstwa 1" xmlns="http://www.w3.org/2000/svg" viewBox="0 0 255.54 216.53"><defs><style>.cls-1{fill:#1e75ad;}</style></defs><path class="cls-1" d="M425.41,316.61c-.13,18.55-6.39,35.19-15.76,50.87-17.16,28.7-41.06,50.95-67.75,70.47a385.14,385.14,0,0,1-40.43,25.71c-2.09,1.17-3.84,2-6.39.54-36.87-20.75-70.58-45.44-97.12-78.84-13-16.31-23.24-34.14-26.94-55.05-7-39.41,18.24-75.24,57.71-81.11,21.59-3.2,40.33,3.77,56.13,18.9,2.89,2.77,1.35,4.46-.25,6.68-14.09,19.51-26.31,40.06-34.39,62.86-2.95,8.34-5.49,16.8-5.48,25.75,0,16.59,15.13,26.29,30.27,19.43,10.55-4.78,18.72-12.68,26.34-21.09,25.54-28.14,43-61.1,57.06-96.09,1.79-4.48,3.59-9,4.94-13.59.83-2.85,1.91-3.51,4.9-3C401.13,254.17,425.52,282.91,425.41,316.61Z" transform="translate(-169.87 -248.44)"/><path class="cls-1" d="M345.58,249.41a290.46,290.46,0,0,1-29.5,63.43c-10.56,17.21-22.15,33.68-37.15,47.45-3.32,3-6.71,6-10.83,8-4.34,2-6.24.85-6.09-4.05A56.12,56.12,0,0,1,264.76,349c10.12-31.89,27.85-59.21,50.68-83.32C323.37,257.32,333.3,252,345.58,249.41Z" transform="translate(-169.87 -248.44)"/></svg>