<svg xmlns="http://www.w3.org/2000/svg" viewBox="0 0 1884.07 2782"><defs><style>.cls-1{fill:#375fcf;}.cls-2{fill:#fff;stroke:#fff;stroke-miterlimit:10;}</style></defs><g id="Objects"><path class="cls-1" d="M1992.13,1192.38c7.38-47,49.91-92.24,49.91-141.34s-42.53-94.31-49.91-141.34c-7.59-48.28,18.81-104.35,4-149.85-15-46.29-69.47-76.12-91.3-118.88-22-43.21-14.36-104.75-42.69-143.69-28.48-39.12-89.44-50.7-123.58-84.85s-45.72-95.09-84.85-123.57c-38.94-28.33-100.47-20.64-143.68-42.7-42.77-21.83-72.6-76.25-118.89-91.29-45.5-14.77-101.56,11.63-149.84,4-47-7.39-92.24-49.91-141.34-49.91s-94.31,42.52-141.34,49.91c-48.28,7.59-104.34-18.81-149.84-4-46.29,15-76.12,69.46-118.89,91.29-43.21,22.06-104.74,14.37-143.68,42.7-39.13,28.48-50.71,89.44-84.85,123.57s-95.1,45.73-123.58,84.85C309.49,536.22,317.18,597.76,295.13,641c-21.83,42.76-76.26,72.59-91.3,118.88-14.77,45.5,11.63,101.57,4,149.85-7.38,47-49.91,92.23-49.91,141.34s42.53,94.3,49.91,141.34c7.59,48.28-18.81,104.34-4,149.84,15,46.29,69.47,76.12,91.3,118.88,22.05,43.21,14.36,104.75,42.69,143.69,28.48,39.12,89.44,50.71,123.58,84.85s45.72,95.1,84.85,123.57c38.94,28.33,100.47,20.64,143.68,42.7,42.77,21.83,72.6,76.26,118.89,91.3,45.5,14.76,101.56-11.63,149.84-4,47,7.38,92.24,49.9,141.34,49.9s94.31-42.52,141.34-49.9c48.28-7.59,104.34,18.8,149.84,4,46.29-15,76.12-69.47,118.89-91.3,43.21-22.06,104.74-14.37,143.68-42.7,39.13-28.47,50.71-89.44,84.85-123.57s95.1-45.73,123.58-84.85c28.33-38.94,20.64-100.48,42.69-143.69,21.83-42.76,76.26-72.59,91.3-118.88C2010.94,1296.72,1984.54,1240.66,1992.13,1192.38ZM1100,1836.26c-433.67,0-785.22-351.56-785.22-785.22S666.33,265.82,1100,265.82,1885.22,617.37,1885.22,1051,1533.67,1836.26,1100,1836.26Z" transform="translate(-157.96 -109)"/><circle class="cls-1" cx="942.04" cy="942.04" r="716.54"/><path class="cls-1" d="M1194.36,2033.61,1100,2330.85,930.66,2864.22c-10.43,32.87-55.55,36.38-70.93,5.52l-161.3-323.66L380,2717.44c-30.37,16.34-65.21-12.56-54.79-45.44l246.52-776.45c14.42,3.62,28.46,6,41.23,8.11,17.9,3,36.4,6.09,46.81,11.41,10,5.12,23.24,18.14,36,30.73,23.22,22.92,52.12,51.43,92.57,64.58,16.22,5.26,33.47,7.81,52.76,7.81,20.8,0,41-3,58.74-5.73,14.63-2.21,28.43-4.29,39.59-4.29a58.38,58.38,0,0,1,9,.61c10.88,1.7,27.29,9.92,43.17,17.86,4.54,2.27,9.24,4.62,14.11,7,26.58,12.87,58.18,25.87,94.36,25.87S1167.78,2046.48,1194.36,2033.61Z" transform="translate(-157.96 -109)"/><path class="cls-1" d="M1820,2717.44l-318.45-171.36-161.3,323.66c-15.38,30.86-60.5,27.35-70.93-5.52l-134.5-423.65,137.09-431.83c8.65.76,18.27,2.21,28.26,3.72,8.89,1.34,18.38,2.77,28.24,3.87a275.25,275.25,0,0,0,30.5,1.86c19.29,0,36.54-2.55,52.76-7.82,40.45-13.13,69.35-41.65,92.57-64.57,12.75-12.59,25.94-25.61,36-30.73,10.39-5.32,28.89-8.41,46.79-11.41,12.77-2.14,26.81-4.49,41.23-8.11L1874.81,2672C1885.23,2704.88,1850.39,2733.78,1820,2717.44Z" transform="translate(-157.96 -109)"/><path class="cls-2" d="M1449.41,708.33c-95-54.85-247.22-40.4-363.25,130-124.84-163.41-292-169-383.78-109.23-100.92,65.66-79,278.38,49,475.12,86.22,132.51,198.54,224,293.53,249.51a127.29,127.29,0,0,0,34.4,6.41c30.22,3,57.87-1.84,81.33-15.36,89.85-35.53,190.12-129.69,265-259.41C1543.06,982.12,1553.67,768.53,1449.41,708.33Z" transform="translate(-157.96 -109)"/></g></svg>